:FULLY-SPECIFIED
:FORCE-ALL-JOINTS-BE-3DOF
:DEGREES
170
root 6.50572 16.0145 -25.7092 4.10263 28.7889 1.60551
lfemur -20.5605 28.3105 -15.2204
ltibia 34.7777 -0 0
lfoot -9.86325 9.22625 0.672415
ltoes 33.4775 -0 0
rfemur -28.1504 -9.3926 -3.82504
rtibia 72.344 -0 0
rfoot 5.78981 -20.6993 -1.53253
rtoes 46.5915 -0 0
lowerback 1.89998 -6.08043 -1.94123
upperback 0.00805348 -8.14816 -2.10985
thorax -0.992958 -4.07806 -0.830278
lowerneck -10.1403 -6.01296 -1.17289
upperneck 2.11232 -8.13745 5.09045
head 2.79353 -3.87581 1.40286
lclavicle 3.05619e-14 -1.31489e-14 -2.41673e-30
lhumerus -48.8287 -41.6682 113.881
lradius 51.8985 -0 0
lwrist 14.2535 0 0
lhand 37.8311 24.2791 0.0186105
lfingers 7.12502 -0 0
lthumb 60.569 37.4074 0.00719135
rclavicle 3.05619e-14 -1.31489e-14 -2.41673e-30
rhumerus -45.1871 -18.7469 -67.8048
rradius 88.3635 -0 0
rwrist -18.2244 0 0
rhand -25.132 -25.3014 0.556531
rfingers 7.12502 -0 0
rthumb 1.38402 -55.2253 0.533415
171
root 6.4594 15.9873 -25.7023 4.23151 27.9478 1.75485
lfemur -19.5707 27.6032 -14.5123
ltibia 33.9662 -0 0
lfoot -10.5897 8.64613 0.785011
ltoes 33.8518 -0 0
rfemur -28.262 -9.68682 -3.96142
rtibia 71.7551 -0 0
rfoot 4.91057 -19.6294 -1.7907
rtoes 46.9719 -0 0
lowerback 1.76239 -5.95216 -1.89455
upperback -0.003059 -7.97068 -2.26427
thorax -0.940007 -3.99288 -1.02599
lowerneck -10.1878 -5.83891 -0.943151
upperneck 2.1664 -7.93257 5.01112
head 2.80844 -3.77209 1.34948
lclavicle 2.94286e-14 -1.45064e-14 -2.81951e-30
lhumerus -49.106 -41.8223 113.934
lradius 51.9575 -0 0
lwrist 14.5609 0 0
lhand 37.9106 24.4282 0.0217128
lfingers 7.12502 -0 0
lthumb 60.6356 37.4762 0.00839008
rclavicle 2.94286e-14 -1.45064e-14 -2.81951e-30
rhumerus -43.9778 -18.4381 -66.3014
rradius 87.3946 -0 0
rwrist -18.3232 0 0
rhand -25.492 -26.2666 0.64982
rfingers 7.12502 -0 0
rthumb 1.03632 -56.1838 0.622818
172
root 6.41309 15.9601 -25.6954 4.35695 27.1065 1.90093
lfemur -18.5971 26.8853 -13.8225
ltibia 33.1547 -0 0
lfoot -11.3172 8.06461 0.890239
ltoes 34.2262 -0 0
rfemur -28.3731 -9.98131 -4.09734
rtibia 71.1662 -0 0
rfoot 4.02654 -18.5554 -2.03238
rtoes 47.3522 -0 0
lowerback 1.62494 -5.82378 -1.84819
upperback -0.0146495 -7.79324 -2.41866
thorax -0.887354 -3.90751 -1.2216
lowerneck -10.2346 -5.66467 -0.713625
upperneck 2.22017 -7.72761 4.93202
head 2.82325 -3.66835 1.29612
lclavicle 2.82953e-14 -1.5864e-14 -3.19545e-30
lhumerus -49.3841 -41.9762 113.987
lradius 52.0165 -0 0
lwrist 14.8684 0 0
lhand 37.99 24.5773 0.0246083
lfingers 7.12502 -0 0
lthumb 60.7022 37.5449 0.00950895
rclavicle 2.82953e-14 -1.5864e-14 -3.19545e-30
rhumerus -42.7625 -18.1595 -64.794
rradius 86.4258 -0 0
rwrist -18.422 0 0
rhand -25.8536 -27.2325 0.737028
rfingers 7.12502 -0 0
rthumb 0.68716 -57.1428 0.70639
173
root 6.36678 15.9329 -25.6885 4.47908 26.2649 2.04388
lfemur -17.6394 26.1572 -13.1507
ltibia 32.3431 -0 0
lfoot -12.0458 7.48179 0.988069
ltoes 34.6005 -0 0
rfemur -28.4835 -10.2761 -4.2328
rtibia 70.5773 -0 0
rfoot 3.13799 -17.4777 -2.25743
rtoes 47.7326 -0 0
lowerback 1.48762 -5.69528 -1.80216
upperback -0.0267174 -7.61582 -2.57302
thorax -0.834999 -3.82197 -1.41711
lowerneck -10.2807 -5.49024 -0.48431
upperneck 2.27363 -7.52257 4.85316
head 2.83797 -3.56459 1.2428
lclavicle 2.7162e-14 -1.72215e-14 -3.54453e-30
lhumerus -49.6631 -42.1299 114.041
lradius 52.0754 -0 0
lwrist 15.1758 0 0
lhand 38.0695 24.7263 0.0272971
lfingers 7.12502 -0 0
lthumb 60.7688 37.6137 0.0105479
rclavicle 2.7162e-14 -1.72215e-14 -3.54453e-30
rhumerus -41.5416 -17.9115 -63.283
rradius 85.4569 -0 0
rwrist -18.5208 0 0
rhand -26.2167 -28.1989 0.818127
rfingers 7.12502 -0 0
rthumb 0.336647 -58.1024 0.784106
174
root 6.32046 15.9057 -25.6816 4.59801 25.423 2.18383
lfemur -16.6971 25.4192 -12.4966
ltibia 31.5316 -0 0
lfoot -12.7754 6.89775 1.07848
ltoes 34.9748 -0 0
rfemur -28.5934 -10.571 -4.36781
rtibia 69.9884 -0 0
rfoot 2.24522 -16.3965 -2.46571
rtoes 48.113 -0 0
lowerback 1.35043 -5.56668 -1.75644
upperback -0.0392624 -7.43844 -2.72736
thorax -0.782942 -3.73625 -1.61252
lowerneck -10.326 -5.31563 -0.255202
upperneck 2.32677 -7.31747 4.77452
head 2.85259 -3.46082 1.18951
lclavicle 2.60287e-14 -1.85791e-14 -3.86676e-30
lhumerus -49.943 -42.2834 114.097
lradius 52.1344 -0 0
lwrist 15.4833 0 0
lhand 38.1489 24.8754 0.0297792
lfingers 7.12502 -0 0
lthumb 60.8354 37.6824 0.011507
rclavicle 2.60287e-14 -1.85791e-14 -3.86676e-30
rhumerus -40.3159 -17.6941 -61.7688
rradius 84.488 -0 0
rwrist -18.6196 0 0
rhand -26.581 -29.1659 0.893091
rfingers 7.12502 -0 0
rthumb -0.0151244 -59.0624 0.85594
175
root 6.27415 15.8785 -25.6747 4.71387 24.5809 2.3209
lfemur -15.7697 24.6717 -11.8599
ltibia 30.7201 -0 0
lfoot -13.5059 6.31259 1.16144
ltoes 35.3491 -0 0
rfemur -28.7026 -10.8663 -4.50238
rtibia 69.3995 -0 0
rfoot 1.34854 -15.312 -2.65709
rtoes 48.4934 -0 0
lowerback 1.21338 -5.43797 -1.71105
upperback -0.052284 -7.26109 -2.88167
thorax -0.731182 -3.65035 -1.80784
lowerneck -10.3707 -5.14085 -0.0262968
upperneck 2.37961 -7.11229 4.69612
head 2.86711 -3.35702 1.13625
lclavicle 2.48954e-14 -1.99366e-14 -4.16214e-30
lhumerus -50.2237 -42.4367 114.154
lradius 52.1934 -0 0
lwrist 15.7908 0 0
lhand 38.2284 25.0245 0.0320545
lfingers 7.12502 -0 0
lthumb 60.902 37.7512 0.0123862
rclavicle 2.48954e-14 -1.99366e-14 -4.16214e-30
rhumerus -39.086 -17.5077 -60.2518
rradius 83.5191 -0 0
rwrist -18.7184 0 0
rhand -26.9466 -30.1333 0.961894
rfingers 7.12502 -0 0
rthumb -0.368057 -60.0228 0.92187
176
root 6.22783 15.8513 -25.6678 4.82676 23.7385 2.45521
lfemur -14.8571 23.9151 -11.2403
ltibia 29.9085 -0 0
lfoot -14.2372 5.7264 1.23693
ltoes 35.7235 -0 0
rfemur -28.8112 -11.1618 -4.63651
rtibia 68.8107 -0 0
rfoot 0.448261 -14.2245 -2.83147
rtoes 48.8738 -0 0
lowerback 1.07646 -5.30915 -1.66597
upperback -0.0657819 -7.08378 -3.03597
thorax -0.679722 -3.56428 -2.00306
lowerneck -10.4146 -4.96588 0.20241
upperneck 2.43215 -6.90704 4.61793
head 2.88153 -3.25322 1.08302
lclavicle 2.3762e-14 -2.12942e-14 -4.43066e-30
lhumerus -50.5054 -42.5898 114.212
lradius 52.2523 -0 0
lwrist 16.0982 0 0
lhand 38.3079 25.1736 0.034123
lfingers 7.12502 -0 0
lthumb 60.9685 37.82 0.0131855
rclavicle 2.3762e-14 -2.12942e-14 -4.43066e-30
rhumerus -37.8525 -17.3525 -58.7323
rradius 82.5502 -0 0
rwrist -18.8172 0 0
rhand -27.3133 -31.1011 1.02452
rfingers 7.12502 -0 0
rthumb -0.722051 -60.9837 0.981874
177
root 6.18152 15.8241 -25.6609 4.9368 22.8959 2.58686
lfemur -13.9586 23.1496 -10.6375
ltibia 29.097 -0 0
lfoot -14.9693 5.13929 1.30493
ltoes 36.0978 -0 0
rfemur -28.9193 -11.4576 -4.7702
rtibia 68.2218 -0 0
rfoot -0.455305 -13.1341 -2.98872
rtoes 49.2541 -0 0
lowerback 0.939667 -5.18023 -1.62121
upperback -0.0797555 -6.9065 -3.19024
thorax -0.62856 -3.47804 -2.19818
lowerneck -10.4579 -4.79075 0.430922
upperneck 2.48438 -6.70172 4.53997
head 2.89586 -3.1494 1.02982
lclavicle 2.26287e-14 -2.26518e-14 -4.67234e-30
lhumerus -50.7879 -42.7427 114.271
lradius 52.3113 -0 0
lwrist 16.4057 0 0
lhand 38.3873 25.3227 0.0359848
lfingers 7.12502 -0 0
lthumb 61.0351 37.8887 0.0139049
rclavicle 2.26287e-14 -2.26518e-14 -4.67234e-30
rhumerus -36.6161 -17.2285 -57.2108
rradius 81.5814 -0 0
rwrist -18.916 0 0
rhand -27.681 -32.0693 1.08093
rfingers 7.12502 -0 0
rthumb -1.07701 -61.9449 1.03593
178
root 6.13521 15.7969 -25.654 5.04409 22.0531 2.71598
lfemur -13.0739 22.3756 -10.051
ltibia 28.2855 -0 0
lfoot -15.702 4.55133 1.36542
ltoes 36.4721 -0 0
rfemur -29.0267 -11.7536 -4.90347
rtibia 67.6329 -0 0
rfoot -1.36183 -12.0413 -3.12875
rtoes 49.6345 -0 0
lowerback 0.803005 -5.0512 -1.57677
upperback -0.0942046 -6.72927 -3.34451
thorax -0.577698 -3.39162 -2.39321
lowerneck -10.5004 -4.61544 0.659244
upperneck 2.5363 -6.49633 4.46224
head 2.91008 -3.04556 0.976649
lclavicle 2.14954e-14 -2.40093e-14 -4.88716e-30
lhumerus -51.0714 -42.8953 114.331
lradius 52.3703 -0 0
lwrist 16.7131 0 0
lhand 38.4668 25.4718 0.0376397
lfingers 7.12502 -0 0
lthumb 61.1017 37.9575 0.0145444
rclavicle 2.14954e-14 -2.40093e-14 -4.88716e-30
rhumerus -35.3774 -17.1359 -55.6878
rradius 80.6125 -0 0
rwrist -19.0148 0 0
rhand -28.0496 -33.0379 1.13113
rfingers 7.12502 -0 0
rthumb -1.43283 -62.9065 1.08403
179
root 6.08889 15.7697 -25.6471 5.14871 21.21 2.84265
lfemur -12.2027 21.5934 -9.48077
ltibia 27.4739 -0 0
lfoot -16.4354 3.96264 1.41838
ltoes 36.8464 -0 0
rfemur -29.1336 -12.0498 -5.03632
rtibia 67.044 -0 0
rfoot -2.27098 -10.9463 -3.25148
rtoes 50.0149 -0 0
lowerback 0.666471 -4.92206 -1.53265
upperback -0.109129 -6.55207 -3.49876
thorax -0.527135 -3.30502 -2.58814
lowerneck -10.5422 -4.43997 0.88738
upperneck 2.58793 -6.29087 4.38472
head 2.92421 -2.94171 0.92351
lclavicle 2.03621e-14 -2.53669e-14 -5.07512e-30
lhumerus -51.3558 -43.0478 114.392
lradius 52.4292 -0 0
lwrist 17.0206 0 0
lhand 38.5463 25.6209 0.0390878
lfingers 7.12502 -0 0
lthumb 61.1683 38.0263 0.0151039
rclavicle 2.03621e-14 -2.53669e-14 -5.07512e-30
rhumerus -34.137 -17.0749 -54.1637
rradius 79.6436 -0 0
rwrist -19.1136 0 0
rhand -28.419 -34.0069 1.17509
rfingers 7.12502 -0 0
rthumb -1.78941 -63.8684 1.12615
180
root 6.04258 15.7425 -25.6402 5.25076 20.3667 2.96697
lfemur -11.3444 20.8033 -8.9263
ltibia 26.6624 -0 0
lfoot -17.1693 3.3733 1.46381
ltoes 37.2208 -0 0
rfemur -29.2398 -12.3463 -5.16875
rtibia 66.4551 -0 0
rfoot -3.18242 -9.84933 -3.35681
rtoes 50.3953 -0 0
lowerback 0.530062 -4.79282 -1.48884
upperback -0.124528 -6.37491 -3.65301
thorax -0.476872 -3.21826 -2.78299
lowerneck -10.5833 -4.26433 1.11534
upperneck 2.63925 -6.08534 4.30741
head 2.93824 -2.83784 0.8704
lclavicle 1.92288e-14 -2.67244e-14 -5.23624e-30
lhumerus -51.6411 -43.2 114.455
lradius 52.4882 -0 0
lwrist 17.328 0 0
lhand 38.6258 25.77 0.040329
lfingers 7.12502 -0 0
lthumb 61.2349 38.095 0.0155835
rclavicle 1.92288e-14 -2.67244e-14 -5.23624e-30
rhumerus -32.8957 -17.0453 -52.6389
rradius 78.6747 -0 0
rwrist -19.2125 0 0
rhand -28.7891 -34.9761 1.21279
rfingers 7.12502 -0 0
rthumb -2.14666 -64.8305 1.16227
